<?xml version="1.0" encoding="utf-8"?>
<!-- Generator: Adobe Illustrator 19.0.0, SVG Export Plug-In . SVG Version: 6.00 Build 0)  -->
<svg version="1.1" id="mountains" xmlns="http://www.w3.org/2000/svg" xmlns:xlink="http://www.w3.org/1999/xlink" x="0px" y="0px"
	 viewBox="0 0 117 27" style="enable-background:new 0 0 117 27;" xml:space="preserve">
<style type="text/css">
	.st0{fill:#36AEEA;}
	.st1{fill:#95A5AD;}
</style>
<g>
	<path class="st0" d="M22.7,17.1c0.1,1.2,0.2,2.1,0.5,2.6c0.3,0.5,0.6,0.8,1.1,0.9s0.9,0,1.5-0.2c0.6-0.2,1.2-0.5,1.8-0.8
		c0,0,0,0,0,0.1c0,0.1,0,0.2,0,0.3s0,0.2,0,0.4c0,0.1,0,0.2,0,0.2c-1.3,0.7-2.5,1.2-3.6,1.3c-1.1,0.1-2,0-2.7-0.5
		c-0.7-0.5-1.3-1.2-1.7-2.2c-0.4-1-0.6-2.4-0.5-4c0-0.5,0-1.1,0.1-1.6c0-0.5,0.1-1,0.1-1.6c0.1-0.5,0.1-1.1,0.2-1.7
		c0.1-0.6,0.2-1.3,0.3-2c-0.2,0.2-0.4,0.5-0.8,1c-0.4,0.5-0.8,1-1.2,1.6c-0.5,0.6-0.9,1.2-1.5,1.8c-0.5,0.6-1,1.1-1.5,1.4
		c-0.5,0.4-0.9,0.6-1.3,0.6s-0.7-0.2-0.8-0.7c-0.6-1.6-1.1-3.2-1.5-4.6s-0.7-2.6-0.9-3.5c-0.2,1.4-0.4,2.8-0.7,4.2
		C9.6,11.6,9.3,13,9,14.4c0.3,0.1,0.6,0.2,0.8,0.3c0.2,0.1,0.4,0.3,0.5,0.4c0.1,0.2,0.2,0.3,0.2,0.6c0,0.2,0,0.5,0,0.9
		c-0.6-0.3-1.2-0.6-1.7-0.8c-0.2,0.7-0.4,1.4-0.6,2.1c-0.2,0.7-0.4,1.2-0.7,1.7c-0.5,0.9-1,1.6-1.6,1.9C5.3,21.9,4.7,22,4.1,22
		S3,21.7,2.5,21.4C2,21,1.6,20.5,1.3,20c-0.3-0.5-0.5-1.1-0.6-1.8s0-1.3,0.3-1.8s0.8-1.1,1.5-1.5c0.7-0.4,1.7-0.7,3-0.9
		C6,12,6.3,9.9,6.6,7.8c0.3-2.1,0.5-4.2,0.7-6.2c0-0.1,0.2-0.3,0.7-0.5C8.4,1,8.8,0.8,9.3,0.7c0.5-0.1,1-0.1,1.4-0.1
		c0.4,0,0.7,0.2,0.7,0.5c0.1,0.4,0.1,1,0.2,1.6c0.1,0.6,0.2,1.2,0.3,1.9c0.1,0.7,0.3,1.4,0.4,2.1c0.2,0.7,0.3,1.4,0.5,2
		c0.2,0.6,0.3,1.2,0.4,1.7s0.3,0.9,0.4,1.2c0,0.1,0.2,0,0.6-0.3c0.3-0.3,0.7-0.8,1.2-1.4c0.5-0.6,1-1.3,1.6-2.1
		c0.6-0.8,1.1-1.6,1.6-2.4c0.5-0.8,1-1.6,1.4-2.4c0.4-0.8,0.7-1.4,0.9-2c0.1-0.3,0.3-0.3,0.7-0.2c0.4,0.1,0.8,0.3,1.3,0.6
		c0.4,0.3,0.8,0.6,1.2,0.9c0.3,0.3,0.5,0.6,0.5,0.7c-0.4,1.8-0.7,3.6-1,5.3c-0.1,0.7-0.2,1.5-0.3,2.3C23.1,11.4,23,12.2,23,13
		c-0.1,0.8-0.1,1.5-0.2,2.2C22.7,15.9,22.7,16.5,22.7,17.1z M5.2,15.2c-0.9,0-1.6,0.2-2.1,0.4c-0.6,0.2-1,0.5-1.3,0.9
		c-0.3,0.3-0.5,0.7-0.6,1.1c-0.1,0.4-0.1,0.8,0,1.1c0.1,0.3,0.2,0.6,0.4,0.9C2,19.8,2.2,19.9,2.5,20c0.4,0.1,0.7-0.1,1-0.5
		c0.3-0.4,0.6-0.9,0.8-1.4s0.4-1.1,0.6-1.7C5.1,15.9,5.2,15.5,5.2,15.2z"/>
	<path class="st0" d="M36.5,9.5c-0.9-0.3-1.7-0.5-2.4-0.3c-0.7,0.1-1.3,0.4-1.8,0.8c-0.5,0.4-1,1-1.3,1.7c-0.3,0.7-0.6,1.4-0.8,2.1
		c-0.2,0.7-0.3,1.5-0.3,2.2c0,0.8,0.1,1.4,0.2,2c0.2,0.6,0.4,1,0.7,1.4c0.3,0.3,0.7,0.5,1.2,0.4c0.7-0.1,1.2-0.4,1.8-0.9
		c0.5-0.5,0.9-1.1,1.2-1.8c0.3-0.7,0.5-1.4,0.6-2.1c0.1-0.7,0.1-1.3,0-1.8c-0.6,0-1.1-0.1-1.4-0.3c-0.3-0.2-0.6-0.4-0.7-0.7
		c-0.1-0.3-0.1-0.6-0.1-0.8c0.1-0.3,0.2-0.5,0.4-0.8c0.2-0.2,0.5-0.4,0.8-0.5c0.3-0.1,0.6-0.1,0.9,0.1c0.5,0.2,0.9,0.6,1.1,1.1
		S37,12.3,37,13s-0.1,1.2-0.2,1.9c-0.1,0.6-0.3,1.2-0.4,1.6c-0.2,0.8-0.5,1.5-0.9,2.2c-0.4,0.7-0.8,1.3-1.4,1.8
		c-0.5,0.5-1.1,0.9-1.8,1.2c-0.7,0.3-1.4,0.4-2.2,0.4c-0.8,0-1.4-0.4-1.9-0.9c-0.5-0.6-0.9-1.3-1.2-2.2c-0.3-0.9-0.4-1.9-0.4-3
		c0-1.1,0.2-2.2,0.5-3.2c0.3-1,0.8-2,1.4-2.9c0.6-0.9,1.4-1.6,2.3-2C31.7,7.2,32.5,7,33.4,7c0.9,0,1.6,0.3,2.2,1
		c0.2,0.2,0.3,0.4,0.5,0.7C36.2,8.9,36.4,9.2,36.5,9.5z"/>
	<path class="st0" d="M41.8,18.9c0.2-0.1,0.5-0.3,0.7-0.8c0.2-0.5,0.5-1.1,0.7-1.9s0.5-1.6,0.7-2.5c0.2-0.9,0.4-1.8,0.6-2.6
		s0.4-1.6,0.5-2.3C45.2,8,45.3,7.4,45.4,7c0.7,0.2,1.2,0.4,1.6,0.6c0.4,0.2,0.7,0.3,1,0.4c0.2,0.1,0.4,0.3,0.5,0.4
		c0.1,0.1,0.1,0.2,0.1,0.3c-0.6,2.3-0.9,4.3-1,6c-0.1,1.7,0.1,3,0.5,3.9c0.4,0.9,1.1,1.4,2.1,1.5s2.3-0.3,4-1.2l0.3,0.6
		c-1.3,0.8-2.6,1.2-3.8,1.4c-1.2,0.2-2.3,0-3.2-0.5c-0.9-0.5-1.6-1.3-2.1-2.5c-0.5-1.1-0.7-2.6-0.7-4.4c-0.5,2.5-1.1,4.5-1.7,5.8
		c-0.7,1.3-1.3,2.1-2,2.4c-0.6,0.3-1.3,0.1-1.8-0.5c-0.6-0.6-1-1.6-1.3-2.9s-0.4-3-0.3-4.9c0.1-2,0.4-4.1,1.1-6.5
		c0.7,0.2,1.2,0.4,1.6,0.6s0.8,0.3,1,0.4c0.2,0.1,0.4,0.3,0.5,0.4c0.1,0.1,0.1,0.2,0.1,0.3c-0.3,1.3-0.6,2.6-0.8,3.9
		c-0.2,1.3-0.2,2.4-0.2,3.4c0,1,0.1,1.7,0.2,2.3S41.5,19,41.8,18.9z"/>
	<path class="st0" d="M68.8,19.8c-1.4,0.8-2.6,1.3-3.6,1.6c-1,0.2-1.9,0.3-2.6,0.1c-0.7-0.2-1.3-0.5-1.8-0.9c-0.5-0.5-0.9-1-1.1-1.6
		c-0.3-0.6-0.5-1.3-0.6-2c-0.1-0.7-0.2-1.3-0.2-1.9c0-0.6,0-1.1,0-1.5c0-0.4,0-0.7,0-0.7c-0.6,0.9-1.1,2.1-1.6,3.6
		c-0.5,1.5-1.1,3.3-1.8,5.3c0,0.1-0.2,0.2-0.4,0.2c-0.2,0-0.5,0-0.8-0.1c-0.3-0.1-0.5-0.2-0.8-0.3c-0.2-0.2-0.4-0.3-0.4-0.6
		c-0.2-0.7-0.3-1.6-0.4-2.7c0-1.1,0-2.3,0.1-3.6s0.2-2.5,0.4-3.8s0.5-2.5,0.8-3.5c1.3,0.4,2.2,0.8,2.6,1C57,8.7,57.2,8.9,57.2,9
		c-0.2,0.4-0.3,0.9-0.5,1.6c-0.2,0.7-0.4,1.5-0.6,2.4c-0.2,0.9-0.3,1.8-0.5,2.7c-0.2,0.9-0.3,1.8-0.3,2.7c0.2-0.5,0.4-1.1,0.7-1.8
		c0.3-0.7,0.5-1.5,0.9-2.2c0.3-0.8,0.6-1.5,1-2.3c0.3-0.8,0.7-1.5,1-2.1c0.3-0.6,0.6-1.1,0.9-1.5c0.3-0.4,0.6-0.6,0.8-0.6
		c0.2,0,0.4,0,0.7,0.1c0.3,0.1,0.5,0.1,0.8,0.2c0.3,0.1,0.5,0.2,0.7,0.3c0.2,0.1,0.3,0.2,0.2,0.3c-0.6,2.3-0.9,4.3-1,6
		c-0.1,1.7,0.1,3,0.5,3.9c0.4,0.9,1.1,1.4,2.1,1.5c1,0.1,2.3-0.3,4-1.2L68.8,19.8z"/>
	<path class="st1" d="M76.4,20.2c-1.9,1.1-3.5,1.7-4.9,1.7c-1.4,0-2.5-0.3-3.3-1.1c-0.9-0.8-1.4-1.9-1.8-3.4
		c-0.3-1.5-0.4-3.2-0.1-5.1c0.1-0.7,0.2-1.3,0.3-2c0.1-0.7,0.3-1.4,0.5-2.1C66.9,8.1,66.7,8,66.5,8c-0.2,0-0.3-0.1-0.4-0.1
		c-0.2,0-0.3-0.1-0.4-0.1l0-0.8c0.1,0,0.3,0,0.5,0.1c0.2,0,0.3,0.1,0.5,0.1c0.2,0,0.4,0.1,0.7,0.1c0.3-0.9,0.5-1.8,0.8-2.6
		c0.3-0.8,0.5-1.6,0.7-2.2c0.7,0.2,1.2,0.4,1.6,0.7c0.4,0.2,0.7,0.4,0.9,0.6c0.2,0.2,0.3,0.4,0.4,0.6c0,0.2,0.1,0.3,0,0.4
		c-0.1,0.5-0.3,1-0.4,1.5c-0.1,0.5-0.3,1-0.4,1.4c0.5,0,1.1,0,1.6,0c0.5,0,1.1-0.1,1.6-0.2l0.1,1.3c-0.6,0.1-1.1,0.2-1.8,0.2
		c-0.6,0-1.2,0-1.8-0.1c-0.2,0.7-0.4,1.4-0.5,2.1c-0.2,0.7-0.3,1.4-0.4,2.2c-0.3,1.7-0.3,3.2-0.2,4.3c0.1,1.2,0.4,2.1,0.9,2.7
		s1.2,0.9,2.2,0.9c0.9,0,2.1-0.5,3.6-1.2L76.4,20.2z"/>
	<path class="st1" d="M91.4,19.8c-1.3,0.8-2.4,1.3-3.5,1.5c-1,0.2-2,0.3-2.8,0.1c-0.8-0.2-1.5-0.6-2.1-1.1c-0.6-0.6-1-1.3-1.3-2.2
		c-0.3,0.6-0.6,1.2-1,1.7c-0.4,0.5-0.8,0.9-1.2,1.3c-0.4,0.3-0.9,0.6-1.4,0.8c-0.5,0.2-1.1,0.2-1.7,0.2c-0.7-0.1-1.2-0.4-1.7-1
		c-0.4-0.6-0.8-1.4-1-2.3c-0.2-0.9-0.3-1.9-0.2-3c0.1-1.1,0.2-2.2,0.6-3.2c0.3-1,0.8-2,1.3-2.8c0.6-0.9,1.3-1.5,2.1-1.9
		c0.8-0.4,1.5-0.6,2.3-0.5s1.4,0.4,1.9,1.1c0,0,0,0.1,0,0.1s0,0,0,0.1C82,8.2,82.1,8,82.2,7.8c0.1-0.2,0.1-0.4,0.2-0.6
		c0.7,0.2,1.2,0.4,1.6,0.6c0.4,0.2,0.7,0.3,1,0.4c0.2,0.1,0.4,0.3,0.5,0.4c0.1,0.1,0.1,0.2,0.1,0.3c-0.6,2.3-0.9,4.3-1,6
		s0.1,3,0.5,3.9c0.4,0.9,1.1,1.4,2.1,1.5s2.3-0.3,4-1.2L91.4,19.8z M79.9,9.6c-0.4,0.2-0.8,0.5-1.2,1c-0.3,0.5-0.6,1-0.9,1.7
		c-0.2,0.6-0.4,1.3-0.5,2c-0.1,0.7-0.2,1.4-0.2,2c0,0.6,0.1,1.2,0.2,1.6c0.1,0.5,0.3,0.8,0.6,0.9c0.4,0.2,0.8,0.2,1.1,0
		c0.3-0.2,0.7-0.5,0.9-0.9c0.3-0.4,0.5-1,0.7-1.6c0.2-0.6,0.3-1.3,0.5-1.9c0.1-0.7,0.2-1.3,0.2-1.9s0-1.2-0.1-1.7
		c-0.1-0.5-0.3-0.8-0.5-1S80.3,9.4,79.9,9.6z"/>
	<path class="st1" d="M98.9,20.2c-1.5,0.9-2.8,1.4-4,1.6c-1.2,0.2-2.2,0.1-3-0.2c-0.9-0.4-1.5-1-2.1-1.8c-0.5-0.9-0.9-1.9-1.1-3.1
		c-0.2-1.2-0.2-2.6,0-4.1c0.2-1.5,0.5-3.1,1-4.8c0.7,0.2,1.2,0.4,1.6,0.6c0.4,0.2,0.8,0.3,1,0.4c0.2,0.1,0.4,0.2,0.5,0.4
		C92.9,9.1,93,9.2,93,9.3c-0.5,2.3-0.9,4.3-1,6c-0.1,1.7,0.1,3,0.5,4c0.4,0.9,1.2,1.5,2.2,1.5c1,0.1,2.3-0.3,4-1.2L98.9,20.2z
		 M93.7,7c0.1-0.4,0.2-0.7,0.3-1.1s0.2-0.7,0.3-1.1c0.1-0.4,0.2-0.7,0.3-1c0-0.1,0-0.2-0.1-0.4c-0.1-0.2-0.2-0.3-0.4-0.6
		c-0.2-0.2-0.5-0.4-0.9-0.6c-0.4-0.2-0.9-0.4-1.6-0.7c-0.4,1-0.7,1.9-0.8,2.8c0,0.4,0,0.7,0,1.1s0.2,0.7,0.3,1.1
		c0.2,0.3,0.4,0.6,0.8,0.9s0.8,0.5,1.3,0.6C93.5,7.7,93.6,7.4,93.7,7z"/>
	<path class="st1" d="M112.8,19.8c-1.4,0.8-2.6,1.3-3.6,1.6c-1,0.2-1.9,0.3-2.6,0.1c-0.7-0.2-1.3-0.5-1.8-0.9
		c-0.5-0.5-0.9-1-1.1-1.6c-0.3-0.6-0.5-1.3-0.6-2s-0.2-1.3-0.2-1.9c0-0.6,0-1.1,0-1.5c0-0.4,0-0.7,0-0.7c-0.6,0.9-1.1,2.1-1.6,3.6
		c-0.5,1.5-1.1,3.3-1.8,5.3c0,0.1-0.2,0.2-0.4,0.2c-0.2,0-0.5,0-0.8-0.1c-0.3-0.1-0.5-0.2-0.8-0.3c-0.2-0.2-0.4-0.3-0.4-0.6
		c-0.2-0.7-0.3-1.6-0.4-2.7c0-1.1,0-2.3,0.1-3.6s0.2-2.5,0.4-3.8s0.5-2.5,0.8-3.5c1.3,0.4,2.2,0.8,2.6,1c0.4,0.3,0.6,0.5,0.6,0.7
		c-0.2,0.4-0.3,0.9-0.5,1.6c-0.2,0.7-0.4,1.5-0.6,2.4c-0.2,0.9-0.3,1.8-0.5,2.7c-0.2,0.9-0.3,1.8-0.3,2.7c0.2-0.5,0.4-1.1,0.7-1.8
		c0.3-0.7,0.5-1.5,0.9-2.2c0.3-0.8,0.6-1.5,1-2.3c0.3-0.8,0.7-1.5,1-2.1c0.3-0.6,0.6-1.1,0.9-1.5c0.3-0.4,0.6-0.6,0.8-0.6
		c0.2,0,0.4,0,0.7,0.1c0.3,0.1,0.5,0.1,0.8,0.2c0.3,0.1,0.5,0.2,0.7,0.3c0.2,0.1,0.3,0.2,0.2,0.3c-0.6,2.3-0.9,4.3-1,6
		c-0.1,1.7,0.1,3,0.5,3.9c0.4,0.9,1.1,1.4,2.1,1.5c1,0.1,2.3-0.3,4-1.2L112.8,19.8z"/>
	<path class="st1" d="M110.1,14.9c-0.1-0.4-0.1-1-0.1-1.5c0-0.6,0-1.2,0-1.8s0.1-1.2,0.2-1.7c0.1-0.6,0.3-1,0.6-1.5
		c0.2-0.4,0.6-0.7,1-1c0.4-0.2,0.9-0.3,1.5-0.2c0.3,0,0.6,0.1,1,0.2c0.3,0.1,0.7,0.3,0.9,0.4c0.3,0.2,0.5,0.4,0.8,0.7
		c0.2,0.3,0.4,0.6,0.4,0.9c0.1,0.6,0.1,1.2,0.1,1.8c0,0.6-0.2,1.3-0.3,1.9c-0.2,0.6-0.3,1.2-0.6,1.8c-0.2,0.6-0.4,1.1-0.6,1.6
		c-0.2,0.5-0.4,0.8-0.5,1.1c-0.1,0.3-0.2,0.4-0.2,0.4c0.2,1.8,0.3,3.4,0.1,4.7c-0.2,1.3-0.5,2.3-1.1,2.9c-0.6,0.6-1.4,0.8-2.5,0.6
		c-1.1-0.2-2.4-0.9-4-2l0.6-0.6c1,0.7,1.8,1.1,2.3,1.1s1-0.1,1.2-0.4c0.2-0.4,0.4-0.9,0.4-1.6c0-0.7-0.1-1.5-0.2-2.4
		c-0.1-0.9-0.3-1.8-0.5-2.8C110.3,16.6,110.2,15.7,110.1,14.9z M113.9,16.8c0.5-1.2,0.8-2.2,1.1-3c0.2-0.9,0.4-1.6,0.4-2.2
		c0.1-0.6,0-1,0-1.4c-0.1-0.3-0.2-0.5-0.4-0.5c-0.2-0.1-0.4,0-0.6,0.3c-0.2,0.3-0.4,0.7-0.5,1.3c-0.1,0.6-0.2,1.4-0.2,2.3
		C113.7,14.5,113.8,15.6,113.9,16.8z"/>
</g>
</svg>
